<svg xmlns="http://www.w3.org/2000/svg" viewBox="0 0 200 280" fill="none">
  <!-- Eucalipto Aura Decore — Sage Green -->
  <!-- Caule principal -->
  <path d="M100 270 C100 270 98 220 100 180 C102 140 100 100 100 60"
        stroke="#4A7A5A" stroke-width="2.5" stroke-linecap="round" fill="none"/>

  <!-- Par de folhas topo esquerda -->
  <ellipse cx="78" cy="72" rx="22" ry="17" fill="#8DB89A" opacity="0.85"
           transform="rotate(-25 78 72)"/>
  <path d="M78 60 C78 60 88 72 78 84" stroke="#4A7A5A" stroke-width="1.2"
        stroke-linecap="round" fill="none"/>

  <!-- Par de folhas topo direita -->
  <ellipse cx="122" cy="78" rx="22" ry="17" fill="#8DB89A" opacity="0.85"
           transform="rotate(25 122 78)"/>
  <path d="M122 66 C122 66 112 78 122 90" stroke="#4A7A5A" stroke-width="1.2"
        stroke-linecap="round" fill="none"/>

  <!-- Par de folhas meio esquerda -->
  <ellipse cx="72" cy="128" rx="25" ry="19" fill="#8DB89A" opacity="0.85"
           transform="rotate(-20 72 128)"/>
  <path d="M72 115 C72 115 84 128 72 141" stroke="#4A7A5A" stroke-width="1.2"
        stroke-linecap="round" fill="none"/>

  <!-- Par de folhas meio direita -->
  <ellipse cx="130" cy="136" rx="25" ry="19" fill="#8DB89A" opacity="0.85"
           transform="rotate(20 130 136)"/>
  <path d="M130 123 C130 123 118 136 130 149" stroke="#4A7A5A" stroke-width="1.2"
        stroke-linecap="round" fill="none"/>

  <!-- Par de folhas baixo esquerda -->
  <ellipse cx="70" cy="188" rx="27" ry="20" fill="#8DB89A" opacity="0.85"
           transform="rotate(-15 70 188)"/>
  <path d="M70 174 C70 174 83 188 70 202" stroke="#4A7A5A" stroke-width="1.2"
        stroke-linecap="round" fill="none"/>

  <!-- Par de folhas baixo direita -->
  <ellipse cx="132" cy="196" rx="27" ry="20" fill="#8DB89A" opacity="0.85"
           transform="rotate(15 132 196)"/>
  <path d="M132 182 C132 182 119 196 132 210" stroke="#4A7A5A" stroke-width="1.2"
        stroke-linecap="round" fill="none"/>
</svg>
